<?xml version="1.0" standalone="no"?>
<!DOCTYPE svg PUBLIC "-//W3C//DTD SVG 20010904//EN"
 "http://www.w3.org/TR/2001/REC-SVG-20010904/DTD/svg10.dtd">
<svg version="1.0" xmlns="http://www.w3.org/2000/svg"
 width="512.000000pt" height="512.000000pt" viewBox="0 0 512.000000 512.000000"
 preserveAspectRatio="xMidYMid meet">

<g transform="translate(0.000000,512.000000) scale(0.100000,-0.100000)"
fill="#000000" stroke="none">
<path d="M2215 4854 c-393 -60 -775 -225 -1090 -473 -101 -79 -285 -262 -369
-366 -298 -370 -464 -788 -509 -1277 -3 -31 -1 -48 6 -48 9 0 699 284 784 323
12 5 28 29 38 56 30 81 136 323 177 406 234 467 557 902 933 1261 77 74 136
133 130 133 -5 -1 -50 -7 -100 -15z"/>
<path d="M2800 4866 c0 -2 72 -65 159 -140 192 -165 439 -416 577 -586 236
-291 397 -547 593 -937 l91 -183 320 -160 c176 -88 323 -160 328 -160 11 0 -4
154 -29 285 -113 606 -463 1141 -979 1494 -274 188 -612 322 -930 370 -41 7
-87 14 -102 16 -16 2 -28 3 -28 1z"/>
<path d="M2382 4701 c-480 -432 -870 -987 -1111 -1579 l-50 -122 339 -170
c187 -94 344 -170 350 -170 6 0 136 95 290 210 l280 210 0 850 c0 468 -2 850
-5 850 -3 0 -45 -35 -93 -79z"/>
<path d="M2640 3931 l0 -851 282 -212 c155 -116 287 -211 293 -211 5 0 186 73
400 163 215 89 400 166 413 171 22 8 21 11 -59 171 -246 492 -495 844 -844
1193 -121 121 -429 394 -471 418 -12 7 -14 -115 -14 -842z"/>
<path d="M3993 1956 l-813 -591 128 -6 127 -5 772 560 c691 501 770 562 745
567 -15 3 -54 19 -87 36 l-60 30 -812 -591z"/>
<path d="M248 2510 c-36 -15 -76 -30 -87 -32 -15 -2 196 -160 752 -564 l772
-560 128 5 128 6 -803 584 c-441 321 -807 585 -813 587 -5 2 -40 -10 -77 -26z"/>
<path d="M1970 2499 c-24 -21 -62 -22 -102 -4 -13 5 -18 3 -18 -10 0 -19 127
-1043 135 -1092 l6 -33 81 0 81 0 -6 28 c-2 15 -36 276 -73 580 -38 303 -71
552 -74 552 -3 -1 -16 -10 -30 -21z"/>
<path d="M3046 1978 c-37 -299 -70 -560 -73 -580 l-6 -38 81 0 80 0 6 38 c20
122 137 1095 133 1099 -3 2 -14 0 -25 -6 -31 -17 -67 -13 -95 9 -14 11 -27 20
-29 20 -3 0 -35 -244 -72 -542z"/>
<path d="M1705 1175 c-16 -15 -25 -36 -25 -55 0 -19 9 -40 25 -55 l24 -25 831
0 831 0 24 25 c16 15 25 36 25 55 0 19 -9 40 -25 55 l-24 25 -831 0 -831 0
-24 -25z"/>
<path d="M1840 591 c0 -160 4 -292 8 -295 5 -3 86 73 181 168 l173 173 -35 52
c-35 50 -77 147 -77 176 0 12 -22 15 -125 15 l-125 0 0 -289z"/>
<path d="M2265 843 c35 -83 76 -127 165 -174 65 -34 195 -34 260 0 89 47 130
91 165 174 l15 37 -310 0 -310 0 15 -37z"/>
<path d="M3030 865 c0 -29 -42 -126 -77 -176 l-35 -52 173 -173 c95 -95 176
-171 181 -168 4 3 8 135 8 295 l0 289 -125 0 c-103 0 -125 -3 -125 -15z"/>
<path d="M2183 388 l-148 -148 525 0 525 0 -148 148 -149 149 -61 -26 c-53
-22 -77 -26 -167 -26 -90 0 -114 4 -167 26 l-61 26 -149 -149z"/>
</g>
</svg>
