<?xml version="1.0" standalone="no"?>
<!DOCTYPE svg PUBLIC "-//W3C//DTD SVG 20010904//EN"
 "http://www.w3.org/TR/2001/REC-SVG-20010904/DTD/svg10.dtd">
<svg version="1.0" xmlns="http://www.w3.org/2000/svg"
 width="512.000000pt" height="512.000000pt" viewBox="0 0 512.000000 512.000000"
 preserveAspectRatio="xMidYMid meet">

<g transform="translate(0.000000,512.000000) scale(0.100000,-0.100000)"
fill="#000000" stroke="none">
<path d="M1827 4950 c-110 -28 -218 -117 -267 -222 -17 -35 -30 -69 -30 -75 0
-10 -35 -13 -141 -13 -82 0 -159 -5 -183 -12 -55 -16 -138 -99 -154 -154 -16
-56 -16 -412 0 -468 16 -55 99 -138 154 -154 59 -17 1369 -17 1428 0 55 16
138 99 154 154 16 56 16 412 0 468 -16 55 -99 138 -154 154 -24 7 -101 12
-183 12 -106 0 -141 3 -141 13 0 32 -64 142 -110 188 -71 71 -158 110 -258
115 -42 2 -94 -1 -115 -6z"/>
<path d="M320 4467 c-49 -16 -133 -102 -148 -153 -18 -60 -18 -3928 0 -3988
16 -55 99 -138 154 -154 60 -17 3128 -17 3188 0 55 16 138 99 154 154 7 25 12
108 12 214 0 160 -1 172 -17 165 -41 -16 -176 -47 -235 -53 l-63 -7 -5 -63
c-9 -114 157 -102 -1442 -102 l-1389 0 -24 25 -25 24 0 1791 0 1791 25 24 c24
25 27 25 200 25 l175 0 0 144 c0 79 3 151 6 160 6 14 -21 16 -262 15 -165 -1
-282 -5 -304 -12z"/>
<path d="M2954 4464 c3 -9 6 -81 6 -160 l0 -144 174 0 c156 0 176 -2 197 -19
l24 -19 5 -544 5 -543 70 -8 c62 -6 178 -33 228 -52 16 -7 17 28 17 645 0 483
-3 663 -12 694 -16 55 -99 138 -154 154 -28 8 -127 12 -304 12 -235 0 -262 -2
-256 -16z"/>
<path d="M825 3495 l-25 -24 0 -511 0 -511 25 -24 24 -25 431 0 431 0 24 25
25 24 0 511 0 511 -25 24 -24 25 -431 0 -431 0 -24 -25z"/>
<path d="M1945 3495 c-16 -15 -25 -36 -25 -55 0 -19 9 -40 25 -55 l24 -25 511
0 511 0 24 25 c16 15 25 36 25 55 0 19 -9 40 -25 55 l-24 25 -511 0 -511 0
-24 -25z"/>
<path d="M1946 3019 c-20 -16 -26 -29 -26 -59 0 -30 6 -43 26 -59 26 -20 38
-21 336 -21 l309 0 24 25 c16 15 25 36 25 55 0 19 -9 40 -25 55 l-24 25 -309
0 c-298 0 -310 -1 -336 -21z"/>
<path d="M3125 2870 c-135 -21 -321 -95 -434 -173 -68 -47 -195 -172 -250
-246 -57 -77 -119 -199 -149 -291 -159 -489 67 -1020 533 -1252 567 -282 1255
16 1448 627 108 342 23 729 -217 994 -149 165 -316 266 -531 322 -92 23 -304
34 -400 19z m370 -344 c113 -36 198 -89 290 -181 91 -91 144 -175 182 -290 23
-71 26 -96 26 -215 0 -119 -3 -144 -26 -215 -52 -158 -158 -297 -295 -386
-397 -260 -927 -70 -1079 386 -24 71 -27 95 -27 215 0 120 3 144 27 215 38
115 91 199 182 290 112 112 235 179 379 205 89 16 251 5 341 -24z"/>
<path d="M1946 2539 c-20 -16 -26 -29 -26 -59 0 -58 33 -80 122 -80 60 0 72 3
93 25 16 15 25 36 25 55 0 19 -9 40 -25 55 -21 22 -33 25 -93 25 -55 0 -75 -4
-96 -21z"/>
<path d="M826 2059 c-20 -16 -26 -29 -26 -59 0 -30 6 -43 26 -59 26 -21 36
-21 536 -21 l509 0 24 25 c16 15 25 36 25 55 0 19 -9 40 -25 55 l-24 25 -509
0 c-500 0 -510 0 -536 -21z"/>
<path d="M825 1575 c-16 -15 -25 -36 -25 -55 0 -19 9 -40 25 -55 l24 -25 551
0 551 0 24 25 c33 32 33 78 0 110 l-24 25 -551 0 -551 0 -24 -25z"/>
<path d="M825 1095 c-16 -15 -25 -36 -25 -55 0 -19 9 -40 25 -55 24 -25 26
-25 215 -25 189 0 191 0 215 25 16 15 25 36 25 55 0 19 -9 40 -25 55 -24 25
-26 25 -215 25 -189 0 -191 0 -215 -25z"/>
<path d="M1465 1095 c-16 -15 -25 -36 -25 -55 0 -19 9 -40 25 -55 l24 -25 351
0 351 0 24 25 c16 15 25 36 25 55 0 19 -9 40 -25 55 l-24 25 -351 0 -351 0
-24 -25z"/>
<path d="M4143 977 c-128 -128 -143 -146 -143 -177 0 -31 22 -57 278 -312 186
-187 291 -286 320 -300 121 -58 261 -16 329 99 37 64 40 164 6 233 -15 31
-111 134 -301 323 -255 255 -281 277 -312 277 -31 0 -49 -15 -177 -143z"/>
</g>
</svg>
