<?xml version="1.0" standalone="no"?>
<!DOCTYPE svg PUBLIC "-//W3C//DTD SVG 20010904//EN"
 "http://www.w3.org/TR/2001/REC-SVG-20010904/DTD/svg10.dtd">
<svg version="1.0" xmlns="http://www.w3.org/2000/svg"
 width="512.000000pt" height="512.000000pt" viewBox="0 0 512.000000 512.000000"
 preserveAspectRatio="xMidYMid meet">

<g transform="translate(0.000000,512.000000) scale(0.100000,-0.100000)"
fill="#000000" stroke="none">
<path d="M2330 4793 c-153 -27 -283 -121 -349 -250 -50 -99 -51 -117 -51 -740
l0 -583 181 -91 c100 -49 182 -89 184 -87 1 2 48 94 104 204 107 214 152 276
239 334 119 79 292 92 425 32 178 -81 284 -267 263 -463 -7 -59 -28 -108 -187
-434 -177 -363 -179 -369 -179 -434 0 -36 -6 -94 -13 -128 l-13 -62 106 -3
107 -3 -278 -765 c-154 -421 -284 -783 -290 -804 -41 -149 140 -257 246 -146
22 23 91 202 335 872 l306 843 55 3 54 2 299 -817 c165 -450 308 -836 319
-857 24 -50 51 -73 101 -87 52 -14 116 10 153 58 50 66 54 55 -263 915 l-291
787 426 4 c462 4 460 3 564 62 99 56 186 168 218 280 21 74 21 1946 0 2020
-42 147 -158 268 -311 323 -41 15 -164 17 -1240 18 -657 1 -1206 -1 -1220 -3z
m2030 -640 c48 -9 106 -71 115 -123 9 -55 -25 -125 -75 -151 -33 -18 -74 -19
-873 -19 -916 0 -883 -2 -926 59 -59 82 -19 202 75 231 34 10 1635 13 1684 3z
m48 -583 c34 -21 72 -87 72 -125 0 -38 -38 -104 -72 -125 -32 -19 -50 -20
-416 -20 -348 0 -387 2 -414 18 -92 54 -93 193 -2 253 27 18 52 19 414 19 369
0 386 -1 418 -20z m-8 -559 c49 -26 84 -96 75 -149 -8 -52 -56 -109 -103 -122
-22 -6 -178 -10 -387 -10 -344 0 -352 0 -395 23 -55 27 -82 71 -82 133 0 53
20 86 72 122 33 22 35 22 409 22 348 0 379 -1 411 -19z"/>
<path d="M840 4490 c-184 -34 -366 -163 -453 -320 -63 -115 -82 -189 -81 -325
0 -105 3 -130 28 -200 60 -174 174 -305 329 -379 91 -43 159 -65 214 -67 15
-1 -8 -7 -51 -15 -394 -66 -693 -330 -793 -701 -26 -95 -27 -109 -31 -427 -3
-276 -1 -340 13 -401 29 -133 117 -247 236 -310 l68 -36 3 -444 c3 -430 4
-444 24 -471 11 -15 33 -37 48 -48 27 -20 40 -21 544 -24 l517 -3 45 23 c26
14 53 37 65 58 20 34 20 53 23 893 1 471 5 857 7 857 3 0 110 -52 238 -116
282 -142 319 -155 417 -155 119 1 208 38 290 121 96 95 142 247 110 358 -9 32
3 58 185 423 209 417 214 432 175 497 -28 45 -76 72 -131 72 -89 0 -96 -9
-279 -372 -91 -179 -168 -329 -171 -333 -3 -3 -228 105 -500 240 -557 276
-603 293 -789 303 l-115 5 74 19 c302 74 503 327 504 633 1 115 -14 178 -69
291 -75 158 -220 282 -389 334 -78 24 -232 34 -305 20z"/>
</g>
</svg>
