<?xml version="1.0" standalone="no"?>
<!DOCTYPE svg PUBLIC "-//W3C//DTD SVG 20010904//EN"
 "http://www.w3.org/TR/2001/REC-SVG-20010904/DTD/svg10.dtd">
<svg version="1.0" xmlns="http://www.w3.org/2000/svg"
 width="512.000000pt" height="512.000000pt" viewBox="0 0 512.000000 512.000000"
 preserveAspectRatio="xMidYMid meet">

<g transform="translate(0.000000,512.000000) scale(0.100000,-0.100000)"
fill="#000000" stroke="none">
<path d="M2104 4948 c-43 -20 -45 -36 -42 -396 l3 -343 192 146 c197 148 226
162 263 132 8 -7 55 -57 104 -112 49 -55 95 -106 102 -114 10 -12 43 14 200
158 103 95 199 177 212 182 48 18 74 -5 208 -187 l129 -175 3 308 c1 169 0
322 -3 340 -3 18 -17 41 -32 53 -25 20 -36 20 -672 19 -423 0 -653 -4 -667
-11z m685 -302 c59 -31 67 -102 17 -152 -21 -21 -44 -34 -60 -34 -80 0 -130
80 -92 149 26 47 84 63 135 37z"/>
<path d="M750 4645 c-245 -55 -445 -221 -534 -442 -169 -414 67 -883 500 -993
98 -25 260 -27 353 -4 268 67 478 277 545 545 23 93 21 255 -4 353 -64 253
-251 447 -505 526 -92 28 -264 36 -355 15z m232 -564 c131 -75 240 -142 243
-150 3 -8 0 -20 -7 -27 -27 -26 -504 -294 -518 -292 -13 3 -15 46 -18 307 -2
322 -1 331 42 309 12 -6 128 -72 258 -147z"/>
<path d="M3900 3975 l0 -685 530 0 530 0 0 324 0 324 -233 4 -234 3 -48 30
c-36 22 -57 45 -77 84 l-28 53 0 274 0 274 -220 0 -220 0 0 -685z"/>
<path d="M4500 4402 c0 -249 1 -263 20 -282 19 -19 33 -20 225 -20 113 0 205
4 205 8 0 6 -417 522 -446 551 -2 2 -4 -113 -4 -257z"/>
<path d="M2889 4170 c-258 -235 -271 -244 -324 -224 -23 9 -47 61 -39 87 3 12
26 42 49 67 l44 45 -77 83 -77 84 -193 -146 c-106 -80 -197 -146 -202 -146
-11 0 -14 -228 -4 -255 17 -44 26 -45 708 -45 l645 0 28 24 c27 24 28 26 31
149 l4 124 -30 12 c-20 8 -70 68 -161 192 -73 98 -137 179 -141 179 -5 0 -122
-103 -261 -230z"/>
<path d="M1345 2996 c-51 -22 -97 -68 -121 -121 l-24 -50 0 -874 c0 -634 3
-884 12 -912 15 -51 69 -114 122 -142 40 -22 48 -22 489 -25 l447 -3 0 -189 0
-190 -198 0 c-207 0 -244 -5 -298 -42 -57 -39 -74 -82 -74 -192 l0 -96 1065 0
1065 0 0 23 c0 21 -7 24 -69 34 -133 21 -225 82 -317 209 l-45 64 -70 0 -69 0
0 188 c0 103 4 192 8 198 5 5 17 31 26 57 10 27 34 69 53 93 19 25 33 49 31
53 -2 4 -28 51 -58 104 l-55 97 -933 0 -932 0 2 763 3 762 1355 3 c1265 2
1356 1 1368 -15 9 -13 12 -142 12 -564 l0 -547 63 -6 c46 -5 72 -3 100 9 l38
16 -3 567 c-3 559 -3 568 -25 607 -12 22 -36 54 -55 72 -70 68 37 63 -1495 63
-1122 -1 -1394 -3 -1418 -14z"/>
<path d="M3182 2191 c-29 -11 -67 -29 -86 -40 -54 -34 -135 -127 -164 -188
-24 -52 -27 -70 -27 -168 0 -103 2 -114 32 -178 39 -83 116 -162 195 -200 31
-15 60 -27 63 -27 3 0 -10 28 -30 63 -64 110 -78 148 -79 217 -4 242 308 392
490 236 22 -18 62 -72 89 -120 28 -47 53 -86 56 -86 14 0 19 104 9 161 -25
138 -113 253 -237 311 -59 28 -81 33 -163 35 -75 3 -106 -1 -148 -16z"/>
<path d="M3312 1789 c-41 -27 -62 -66 -62 -120 0 -36 25 -85 170 -339 94 -164
170 -300 170 -303 0 -3 -15 -15 -34 -26 -81 -51 -126 -122 -126 -201 0 -65 21
-108 123 -249 68 -95 91 -120 136 -145 52 -28 62 -30 199 -35 l144 -6 401 228
c221 126 408 234 415 241 11 11 10 23 -5 68 -27 80 -329 605 -359 625 -34 22
-103 22 -137 0 -15 -10 -35 -33 -44 -51 l-16 -34 -29 34 c-31 35 -79 51 -122
40 -41 -10 -85 -54 -92 -92 l-6 -35 -22 19 c-33 30 -61 42 -101 42 -69 0 -121
-42 -139 -114 l-12 -45 -135 237 c-148 259 -168 282 -243 282 -24 0 -54 -9
-74 -21z"/>
<path d="M4530 465 c-206 -118 -379 -216 -384 -218 -5 -1 1 -22 13 -46 l22
-42 32 18 c18 11 193 111 389 222 l358 204 -22 38 c-12 22 -24 39 -27 39 -3 0
-175 -97 -381 -215z"/>
</g>
</svg>
