<?xml version="1.0" standalone="no"?>
<!DOCTYPE svg PUBLIC "-//W3C//DTD SVG 20010904//EN"
 "http://www.w3.org/TR/2001/REC-SVG-20010904/DTD/svg10.dtd">
<svg version="1.0" xmlns="http://www.w3.org/2000/svg"
 width="512.000000pt" height="512.000000pt" viewBox="0 0 512.000000 512.000000"
 preserveAspectRatio="xMidYMid meet">

<g transform="translate(0.000000,512.000000) scale(0.100000,-0.100000)"
fill="#000000" stroke="none">
<path d="M1093 5113 c-10 -4 -13 -99 -13 -428 0 -409 1 -425 19 -435 26 -13
406 -13 432 0 18 10 19 26 19 428 0 312 -3 421 -12 430 -9 9 -71 12 -222 11
-116 0 -217 -3 -223 -6z"/>
<path d="M3582 5108 c-9 -9 -12 -118 -12 -430 0 -402 1 -418 19 -428 26 -13
406 -13 432 0 18 10 19 26 19 434 0 377 -2 425 -16 430 -31 12 -429 7 -442 -6z"/>
<path d="M277 4495 c-53 -20 -113 -66 -148 -113 -59 -80 -59 -84 -59 -568 l0
-444 2490 0 2491 0 -3 458 c-3 456 -3 457 -26 504 -33 67 -104 134 -169 158
-49 18 -77 20 -333 20 l-280 0 0 -137 c0 -124 -3 -143 -24 -188 -13 -27 -36
-63 -52 -78 -60 -60 -69 -62 -317 -65 -267 -4 -306 3 -381 69 -78 69 -90 102
-94 262 l-4 137 -808 0 -808 0 -4 -137 c-4 -160 -16 -193 -94 -262 -75 -66
-114 -73 -381 -69 -248 3 -257 5 -317 65 -16 15 -39 51 -52 78 -21 45 -24 64
-24 188 l0 137 -282 -1 c-217 0 -292 -4 -321 -14z"/>
<path d="M72 1698 l3 -1473 23 -47 c30 -60 89 -119 150 -149 l47 -24 2265 0
2265 0 47 24 c61 30 120 89 150 149 l23 47 3 1473 2 1472 -2490 0 -2490 0 2
-1472z m2470 1066 c26 -13 53 -62 189 -340 87 -178 162 -324 166 -324 4 0 168
-25 363 -55 353 -55 355 -55 383 -85 48 -53 33 -104 -55 -185 -29 -27 -142
-136 -251 -243 l-198 -194 61 -343 c33 -189 60 -355 60 -369 0 -35 -45 -84
-83 -91 -28 -6 -77 17 -358 164 l-325 170 -325 -169 c-178 -93 -332 -170 -342
-170 -33 0 -78 31 -92 64 -13 30 -9 63 45 372 33 186 60 348 60 359 0 13 -89
108 -260 275 -252 246 -261 256 -260 293 0 45 13 72 40 87 10 5 180 35 377 66
197 31 359 57 360 58 1 1 71 143 156 316 85 173 162 322 173 331 38 32 71 36
116 13z"/>
<path d="M2368 2198 c-88 -179 -133 -261 -151 -273 -17 -11 -117 -30 -299 -57
-150 -22 -275 -42 -277 -44 -2 -2 54 -59 125 -126 71 -67 164 -156 207 -198
76 -75 77 -77 77 -126 0 -27 -20 -161 -44 -299 -25 -137 -43 -251 -41 -253 2
-2 110 54 242 123 155 83 252 128 278 131 36 4 65 -9 285 -125 134 -71 246
-128 249 -126 2 2 -18 128 -44 279 -26 151 -45 285 -42 298 6 22 57 75 320
328 54 52 94 96 90 97 -4 1 -131 20 -281 43 -150 22 -282 46 -293 52 -13 8
-71 113 -149 273 l-127 259 -125 -256z"/>
</g>
</svg>
