<?xml version="1.0" standalone="no"?>
<!DOCTYPE svg PUBLIC "-//W3C//DTD SVG 20010904//EN"
 "http://www.w3.org/TR/2001/REC-SVG-20010904/DTD/svg10.dtd">
<svg version="1.0" xmlns="http://www.w3.org/2000/svg"
 width="512.000000pt" height="512.000000pt" viewBox="0 0 512.000000 512.000000"
 preserveAspectRatio="xMidYMid meet">

<g transform="translate(0.000000,512.000000) scale(0.100000,-0.100000)"
fill="#000000" stroke="none">
<path d="M0 2560 l0 -2130 2560 0 2560 0 0 150 0 150 -2410 0 -2410 0 0 1980
0 1980 -150 0 -150 0 0 -2130z"/>
<path d="M4050 4110 l0 -149 150 -3 149 -3 -212 -252 -212 -253 -50 7 c-84 11
-178 4 -240 -17 -265 -91 -392 -382 -279 -637 13 -30 21 -60 17 -66 -13 -21
-376 -493 -393 -510 -16 -18 -20 -18 -70 -3 -66 20 -180 20 -241 2 -47 -15
-100 -39 -154 -71 l-31 -18 -242 188 c-207 162 -242 192 -242 215 0 15 -7 51
-16 81 -65 220 -291 366 -515 332 -229 -36 -400 -232 -399 -460 1 -87 13 -141
51 -218 l31 -61 -323 -503 c-177 -277 -322 -511 -323 -519 -1 -9 47 -46 117
-90 100 -64 120 -73 131 -61 7 8 154 235 326 504 172 270 314 491 315 493 1 1
34 -3 74 -9 136 -23 282 23 386 122 39 37 58 49 67 42 7 -5 102 -78 210 -162
l197 -153 -6 -62 c-11 -127 38 -266 129 -362 94 -100 200 -145 338 -145 139 0
253 51 347 155 120 133 153 331 81 498 -11 27 -17 52 -12 60 6 9 366 482 408
535 1 1 24 -4 51 -12 147 -45 328 6 447 126 145 144 178 360 83 542 -14 27
-25 53 -25 57 0 10 399 484 411 488 5 2 9 -73 9 -167 l0 -171 150 0 150 0 0
143 c0 78 -3 267 -7 420 l-6 277 -414 0 -413 0 0 -150z m-190 -965 c81 -42
113 -141 70 -225 -27 -54 -72 -83 -136 -88 -130 -11 -222 123 -162 237 46 89
140 120 228 76z m-2225 -519 c47 -36 65 -74 65 -139 0 -172 -233 -227 -311
-74 -27 53 -23 130 11 177 51 72 164 90 235 36z m1234 -706 c68 -34 105 -122
82 -193 -26 -77 -83 -119 -161 -119 -120 0 -199 114 -156 226 9 24 24 51 34
59 55 50 136 61 201 27z"/>
</g>
</svg>
