<?xml version="1.0" standalone="no"?>
<!DOCTYPE svg PUBLIC "-//W3C//DTD SVG 20010904//EN"
 "http://www.w3.org/TR/2001/REC-SVG-20010904/DTD/svg10.dtd">
<svg version="1.0" xmlns="http://www.w3.org/2000/svg"
 width="400.000000pt" height="400.000000pt" viewBox="0 0 400.000000 400.000000"
 preserveAspectRatio="xMidYMid meet">
<metadata>
Created by potrace 1.16, written by Peter Selinger 2001-2019
</metadata>
<g transform="translate(0.000000,400.000000) scale(0.100000,-0.100000)"
fill="#000000" stroke="none">
<path d="M1827 3341 c-200 -66 -408 -196 -581 -362 -169 -161 -309 -351 -415
-562 -124 -248 -171 -443 -171 -718 0 -208 15 -282 88 -422 47 -92 68 -120
132 -180 159 -149 289 -196 543 -197 199 0 449 83 640 212 l58 39 72 -45 c110
-69 293 -152 387 -177 71 -19 111 -23 250 -24 149 0 172 2 235 24 81 28 168
103 216 186 26 45 29 59 29 138 0 119 -28 223 -97 360 -82 164 -163 278 -291
409 l-114 116 22 108 c20 96 21 130 17 303 -5 207 -17 282 -60 391 -66 162
-185 297 -327 370 -112 57 -173 69 -360 69 -153 0 -156 0 -273 -38z m436 -145
c66 -18 195 -114 243 -181 81 -111 105 -264 80 -514 -8 -91 -20 -169 -25 -174
-6 -6 -22 1 -43 17 -56 42 -221 115 -325 143 -87 24 -116 27 -268 27 -158 1
-173 -1 -217 -22 -126 -62 -189 -164 -196 -317 -7 -153 9 -246 62 -372 50
-117 151 -274 252 -389 l54 -62 -72 -43 c-101 -60 -199 -106 -295 -140 -137
-48 -306 -39 -428 24 -87 45 -181 161 -227 282 -48 123 -51 153 -45 348 9 257
22 310 140 567 84 183 150 277 305 433 171 174 354 289 587 372 65 23 81 24
215 21 94 -2 165 -9 203 -20z m-128 -841 c159 -37 375 -128 375 -157 0 -25
-86 -208 -136 -292 -54 -89 -159 -233 -226 -309 l-33 -39 -103 111 c-116 125
-181 217 -238 342 -34 73 -39 93 -38 150 3 107 54 177 147 197 117 26 130 26
252 -3z m835 -555 c42 -52 110 -180 139 -260 74 -208 46 -330 -93 -393 -37
-17 -48 -18 -121 -6 -156 24 -361 107 -472 192 l-54 40 49 51 c123 128 275
375 327 534 l17 53 86 -83 c47 -46 102 -103 122 -128z"/>
</g>
</svg>
