<?xml version="1.0" standalone="no"?>
<!DOCTYPE svg PUBLIC "-//W3C//DTD SVG 20010904//EN"
 "http://www.w3.org/TR/2001/REC-SVG-20010904/DTD/svg10.dtd">
<svg version="1.0" xmlns="http://www.w3.org/2000/svg"
 width="512.000000pt" height="512.000000pt" viewBox="0 0 512.000000 512.000000"
 preserveAspectRatio="xMidYMid meet">

<g transform="translate(0.000000,512.000000) scale(0.100000,-0.100000)"
fill="#000000" stroke="none">
<path d="M2325 4844 c-462 -78 -861 -373 -1065 -789 -83 -170 -129 -328 -146
-501 -6 -69 -8 -73 -50 -108 -24 -21 -54 -56 -67 -79 -21 -41 -22 -50 -22
-347 0 -334 0 -335 64 -403 111 -121 323 -91 395 55 l26 52 0 296 0 296 -26
53 c-17 33 -42 64 -65 80 -44 30 -44 32 -24 161 84 517 500 931 1018 1015 667
108 1299 -346 1411 -1014 22 -129 21 -132 -23 -163 -24 -16 -48 -46 -65 -81
l-27 -54 2 -313 c1 -358 12 -317 -101 -374 -107 -54 -245 -95 -387 -116 -65
-9 -67 -8 -99 20 -41 35 -89 44 -227 38 -115 -4 -143 -15 -177 -71 -25 -40
-26 -109 -3 -147 33 -56 76 -70 218 -70 133 0 150 4 200 50 25 22 45 29 118
39 184 25 383 93 509 173 57 37 57 37 90 20 49 -25 161 -23 213 5 47 25 85 64
111 113 17 32 19 62 19 340 0 296 -1 306 -22 346 -12 23 -42 59 -66 80 l-44
39 -12 101 c-74 639 -573 1155 -1216 1259 -111 18 -351 18 -460 -1z"/>
<path d="M2450 4395 c-8 -2 -48 -9 -89 -15 -330 -54 -585 -276 -695 -605 -45
-135 -59 -248 -53 -440 12 -364 118 -649 368 -982 44 -58 86 -118 94 -133 46
-90 37 -196 -23 -262 -45 -50 -94 -78 -229 -132 -194 -78 -488 -235 -687 -368
-117 -79 -251 -213 -294 -295 -39 -73 -62 -172 -62 -263 0 -121 39 -219 123
-307 173 -183 531 -287 1116 -324 255 -16 1095 -6 1289 15 594 65 892 186 996
405 30 64 31 71 31 201 0 155 -13 208 -72 309 -114 194 -410 389 -862 565
-223 88 -320 147 -357 218 -8 16 -14 56 -14 97 l0 69 -162 4 c-185 4 -214 13
-281 87 -122 135 -87 338 73 426 l55 30 170 0 c168 0 171 0 219 -28 53 -30 52
-30 179 0 76 17 76 16 127 150 126 324 145 667 54 955 -47 150 -106 249 -213
362 -111 116 -259 199 -433 242 -57 14 -331 28 -368 19z"/>
</g>
</svg>
