<?xml version="1.0" standalone="no"?>
<!DOCTYPE svg PUBLIC "-//W3C//DTD SVG 20010904//EN"
 "http://www.w3.org/TR/2001/REC-SVG-20010904/DTD/svg10.dtd">
<svg version="1.0" xmlns="http://www.w3.org/2000/svg"
 width="512.000000pt" height="512.000000pt" viewBox="0 0 512.000000 512.000000"
 preserveAspectRatio="xMidYMid meet">

<g transform="translate(0.000000,512.000000) scale(0.100000,-0.100000)"
fill="#000000" stroke="none">
<path d="M1235 4831 c-11 -5 -31 -21 -45 -36 -25 -26 -25 -29 -28 -230 l-3
-204 -302 -3 -302 -3 -61 -28 c-77 -36 -145 -104 -181 -182 l-28 -60 0 -1365
0 -1365 28 -60 c36 -78 104 -146 181 -182 l61 -28 568 -3 c312 -1 567 -6 567
-10 0 -8 -95 -489 -105 -529 -5 -22 -8 -22 -220 -25 l-215 -3 -32 -33 c-28
-28 -33 -39 -33 -82 0 -43 5 -54 33 -82 l32 -33 1170 0 1170 0 32 33 c28 28
33 39 33 82 0 43 -5 54 -33 82 l-32 33 -215 3 c-212 3 -215 3 -220 25 -10 41
-105 521 -105 529 0 4 65 8 144 8 l144 0 4 -125 3 -125 33 -32 c28 -28 39 -33
82 -33 43 0 54 5 82 33 l33 32 3 125 4 124 301 3 302 3 61 28 c77 36 145 104
181 182 l28 60 0 507 0 508 -33 32 c-28 28 -39 33 -82 33 -43 0 -54 -5 -82
-33 l-33 -32 -5 -490 -5 -490 -33 -32 -32 -33 -285 -3 -285 -3 0 200 0 199 85
3 c80 4 86 6 117 37 l33 32 3 384 3 384 72 7 c216 21 413 94 575 214 350 260
521 669 457 1094 -36 240 -146 457 -320 632 -173 172 -385 281 -625 320 -362
58 -729 -63 -991 -328 -36 -37 -77 -82 -90 -102 l-24 -35 -687 0 -687 0 -3
205 -3 205 -31 31 c-33 33 -92 46 -129 30z m2520 -387 c44 -21 65 -67 65 -143
0 -55 3 -62 23 -70 44 -18 109 -73 137 -118 51 -80 38 -163 -30 -198 -59 -31
-133 -6 -165 54 -19 38 -43 51 -95 51 -34 0 -48 -6 -76 -34 -69 -69 -30 -129
108 -166 237 -63 350 -187 335 -367 -9 -115 -83 -222 -191 -275 l-44 -21 -4
-74 c-3 -67 -6 -76 -36 -106 -28 -27 -39 -32 -82 -32 -43 0 -54 5 -82 32 -30
30 -33 39 -36 108 -4 73 -5 76 -36 92 -92 48 -156 131 -156 204 0 51 18 82 60
104 60 31 124 10 165 -55 40 -63 125 -68 178 -10 37 41 36 81 -3 114 -29 24
-114 56 -150 56 -29 0 -158 68 -200 106 -23 21 -53 61 -68 88 -22 43 -26 64
-27 136 0 73 4 93 28 141 31 65 96 129 161 161 l44 21 4 73 c3 61 7 77 28 99
43 47 89 56 145 29z m-2595 -523 l0 -199 -85 -3 c-80 -4 -86 -6 -117 -37 l-33
-32 0 -770 0 -770 33 -32 c31 -31 37 -33 117 -37 l84 -3 3 -204 3 -204 33 -32
c28 -28 39 -33 82 -33 43 0 54 5 82 33 l33 32 3 204 3 204 84 3 c80 4 86 6
117 37 l33 32 0 770 0 770 -33 32 c-31 31 -37 33 -117 37 l-85 3 0 199 0 199
621 0 c493 0 620 -3 615 -12 -12 -31 -46 -148 -57 -203 -19 -86 -16 -342 4
-432 53 -235 143 -399 314 -573 l102 -104 3 -503 3 -503 33 -32 c31 -31 37
-33 117 -37 l85 -3 0 -199 0 -199 -400 0 -400 0 0 199 0 199 85 3 c80 4 86 6
117 37 l33 32 0 530 0 530 -33 32 c-31 31 -37 33 -117 37 l-84 3 -3 204 -3
204 -33 32 c-28 28 -39 33 -82 33 -43 0 -54 -5 -82 -33 l-33 -32 -3 -204 -3
-204 -84 -3 c-80 -4 -86 -6 -117 -37 l-33 -32 0 -530 0 -530 33 -32 c31 -31
37 -33 117 -37 l85 -3 0 -199 0 -199 -805 2 -805 3 -32 33 -33 32 0 1329 0
1329 25 27 c14 15 34 31 45 35 11 5 143 9 293 9 l272 1 0 -199z m240 -1041 l0
-600 -120 0 -120 0 0 600 0 600 120 0 120 0 0 -600z m1040 -560 l0 -360 -120
0 -120 0 0 360 0 360 120 0 120 0 0 -360z m964 281 l71 -18 3 -312 2 -311
-120 0 -120 0 0 350 0 349 47 -20 c25 -11 78 -28 117 -38z m-699 -1543 c10
-41 105 -522 105 -530 0 -4 -220 -8 -490 -8 -269 0 -490 4 -490 8 0 8 95 489
105 530 l5 22 380 0 380 0 5 -22z"/>
</g>
</svg>
